<?xml version="1.0" encoding="UTF-8"?>
<!DOCTYPE svg PUBLIC "-//W3C//DTD SVG 1.1//EN" "http://www.w3.org/Graphics/SVG/1.1/DTD/svg11.dtd">
<!-- Creator: CorelDRAW -->
<svg xmlns="http://www.w3.org/2000/svg" xml:space="preserve" width="91.44mm" height="17.78mm" version="1.1" shape-rendering="geometricPrecision" text-rendering="geometricPrecision" image-rendering="optimizeQuality" fill-rule="evenodd" clip-rule="evenodd"
viewBox="0 0 9144 1778"
 xmlns:xlink="http://www.w3.org/1999/xlink"
 xmlns:xodm="http://www.corel.com/coreldraw/odm/2003">
 <g id="Layer_x0020_1">
  <metadata id="CorelCorpID_0Corel-Layer"/>
  <path fill="#282829" d="M688.22 873.92l-2.3 -509.1 -338.5 0.03 -0.05 1411.32 321.27 -0.48 369.75 -865.72 -1.24 865.86 353.99 0.36 349.2 -856.35 -1.55 855.59 349.08 0.55 0.38 -1772.19 -340.27 0.25 -355.29 843.3 -4.92 -844.2 -343.73 -1.33 -355.82 872.11zm-682.97 -506.72l342.15 -2.39 -0.89 -338.22 -341.01 1.12 -0.25 339.49zm2902.82 -363.28l0 81.42 -554.17 0 0 761.65 554.17 0 0 81.42 -554.17 0 0 764.28 554.17 0 0 81.42 -635.58 0 0 -1770.19 635.58 0zm801.93 1229.15l-467.5 0 -120.81 541.04 -84.05 0 139.2 -614.58 0 -7.88 267.89 -1147.73 65.66 0 404.46 1770.19 -84.04 0 -120.81 -541.04zm-446.49 -81.42l428.1 0 -215.36 -924.48 -212.74 924.48zm1466.4 622.46l-611.95 -1515.43 0 1515.43 -84.04 0 0 -1770.19 70.91 0 609.32 1515.43 0 -1515.43 84.05 0 0 1770.19 -68.29 0zm1363.97 -233.75l333.55 -1536.44 86.68 0 -386.08 1770.19 -68.29 0 -338.8 -1536.44 -338.81 1536.44 -65.66 0 -391.33 -1770.19 84.05 0 341.43 1536.44 338.8 -1536.44 65.66 0 338.8 1536.44zm1156.49 -690.74l0 -845.7 84.05 0 0 1770.19 -84.05 0 0 -843.07 -535.78 0 0 843.07 -84.04 0 0 -1770.19 84.04 0 0 845.7 535.78 0zm368.57 924.49l-81.42 0 0 -1770.19 81.42 0 0 1770.19zm801.93 0l-677.61 0 0 -1770.19 84.05 0 0 1688.77 593.56 0 0 81.42zm717.88 -1770.19l0 81.42 -554.17 0 0 761.65 554.17 0 0 81.42 -554.17 0 0 764.28 554.17 0 0 81.42 -635.58 0 0 -1770.19 635.58 0z"/>
 </g>
</svg>
